<?xml version="1.0" encoding="UTF-8" standalone="no"?>
<!-- Created with Inkscape (http://www.inkscape.org/) -->

<svg
        xmlns:dc="http://purl.org/dc/elements/1.1/"
        xmlns:cc="http://creativecommons.org/ns#"
        xmlns:rdf="http://www.w3.org/1999/02/22-rdf-syntax-ns#"
        xmlns:svg="http://www.w3.org/2000/svg"
        xmlns="http://www.w3.org/2000/svg"
        xmlns:sodipodi="http://sodipodi.sourceforge.net/DTD/sodipodi-0.dtd"
        xmlns:inkscape="http://www.inkscape.org/namespaces/inkscape"
        width="95.717331mm"
        height="74.389618mm"
        viewBox="0 0 95.717331 74.389618"
        version="1.1"
        id="svg4848"
        inkscape:version="0.92.4 (5da689c313, 2019-01-14)"
        sodipodi:docname="meu-cerebro.svg">
    <defs
            id="defs4842"/>
    <sodipodi:namedview
            id="base"
            pagecolor="#ffffff"
            bordercolor="#666666"
            borderopacity="1.0"
            inkscape:pageopacity="0.0"
            inkscape:pageshadow="2"
            inkscape:zoom="1.1867187"
            inkscape:cx="90.801864"
            inkscape:cy="32.065395"
            inkscape:document-units="mm"
            inkscape:current-layer="layer1"
            showgrid="false"
            fit-margin-top="0"
            fit-margin-left="0"
            fit-margin-right="0"
            fit-margin-bottom="0"
            inkscape:window-width="1920"
            inkscape:window-height="1017"
            inkscape:window-x="-8"
            inkscape:window-y="-8"
            inkscape:window-maximized="1"/>
    <metadata
            id="metadata4845">
        <rdf:RDF>
            <cc:Work
                    rdf:about="">
                <dc:format>image/svg+xml</dc:format>
                <dc:type
                        rdf:resource="http://purl.org/dc/dcmitype/StillImage"/>
                <dc:title></dc:title>
            </cc:Work>
        </rdf:RDF>
    </metadata>
    <g
            inkscape:label="Camada 1"
            inkscape:groupmode="layer"
            id="layer1"
            transform="translate(-93.939887,-108.19667)">
        <path
                style="display:inline;fill:#fd7062;stroke:none;stroke-width:0.26458332px;stroke-linecap:butt;stroke-linejoin:miter;stroke-opacity:1"
                d="m 94.966224,134.03307 c 0.83258,-2.66766 2.25337,-5.01207 4.0699,-7.13901 4.680666,-6.07029 10.954256,-9.81249 17.460746,-13.21428 4.46114,-1.99157 9.03897,-3.74973 14.13451,-4.47247 5.10427,-1.03477 11.79698,-0.86119 17.85739,-0.87467 5.9094,0.30608 11.74881,1.47509 17.50725,3.6429 2.03928,0.62582 3.88959,1.45172 5.61101,2.41411 1.32862,0.74279 2.58046,1.5669 3.78311,2.44308 2.67965,1.85775 4.99758,3.9958 6.96554,6.40509 0.73148,0.97351 1.39047,1.93253 2.0043,2.88251 0.59353,0.91856 1.14485,1.82868 1.67865,2.73529 2.02008,3.0064 2.61401,6.07763 3.09577,9.15395 0.31202,1.7367 0.31496,3.45679 0.39034,5.18079 -0.18651,2.86682 -0.29033,5.76961 -1.76476,8.07643 -2.55927,2.96576 -5.46664,5.51576 -9.30071,6.95885 l 0.32023,2.6421 c -0.10838,2.60471 -0.91114,4.71345 -2.42858,6.3117 -2.93373,3.17069 -6.23686,5.63613 -10.27483,6.69866 -1.78022,0.65365 -3.89486,0.7499 -5.96475,0.92072 l 2.72217,3.65624 c 0.4458,0.78282 0.50691,1.49238 0.42699,2.17506 -0.16641,0.54014 -0.44635,0.92417 -0.81398,1.18762 -0.52754,0.27305 -1.06204,0.50437 -1.61462,0.62716 -2.00657,-1.33813 -3.46212,-3.38475 -4.99062,-5.33758 l -10.10137,-13.50406 -4.64368,3.13582 9.71437,12.22306 0.21351,1.36108 -0.72056,1.33438 -1.62129,0.63385 -1.28769,-0.23353 -4.83052,-5.8313 -5.97809,-7.40588 c -1.49039,0.5085 -3.02353,0.9101 -4.56361,1.29436 l -4.62483,0.22819 c -2.13242,-0.11198 -4.1452,-0.36885 -6.07701,-0.88205 -2.21054,-0.82849 -4.21531,-1.84314 -5.89803,-3.14916 -2.48662,-1.83792 -3.48188,-3.52671 -4.49691,-5.21748 -0.71981,-1.36195 -1.10343,-2.61886 -1.25433,-3.80302 l 0.12009,-4.06992 c -3.45582,-0.3982 -6.6487,-1.3004 -9.50088,-2.8556 -2.198886,-1.38159 -3.657616,-2.97467 -4.803816,-4.65702 -0.70636,-1.20897 -1.12006,-2.45045 -1.37443,-3.70964 l -0.04,-3.12248 c 0.0514,-1.73789 0.24279,-3.40585 0.89405,-4.84385 z"
                id="path3890"
                inkscape:connector-curvature="0"
                sodipodi:nodetypes="ccccccsccscccccccccccccccccccccccccccccccccccc"/>
        <path
                style="display:inline;fill:white;stroke:none;stroke-width:0.26458332px;stroke-linecap:butt;stroke-linejoin:miter;stroke-opacity:1"
                d="m 104.01858,128.71868 2.11357,5.35942 3.26472,3.37794 3.37794,1.17001 3.90633,-0.94355 2.58535,-2.47213 1.43422,-2.50987 0.0189,-1.30211 -0.94356,-1.26437 -0.88695,-0.45291 -1.33985,0.0566 -0.77372,0.45291 -1.54744,2.3589 -2.01921,1.1134 -3.17036,-2.52874 -1.22663,-3.64214 v -3.09487 l 7.49186,-5.03861 7.68058,-3.28359 4.96312,-1.49082 2.92503,-0.62275 0.49066,-0.0377 -1.18889,2.83068 -2.13244,3.69875 -1.79277,3.92521 -0.0189,1.2455 0.0377,1.18888 0.94356,1.49083 1.81163,1.28324 2.03808,0.30193 1.98149,-0.77372 0.60387,-0.7171 0.0755,-1.79276 -0.7926,-0.9813 -0.81146,-0.56614 -0.90582,-0.0566 2.24567,-4.28376 2.60424,-5.4349 0.30194,-1.17001 v -0.92469 c 5.22328,-0.53145 10.38695,-0.28807 15.50823,0.50644 l 5.9321,0.90217 6.34433,2.19362 c 3.9207,1.31449 7.37267,3.08209 9.76777,5.87134 2.88978,2.32904 5.31565,5.16417 7.09898,8.70024 l 2.43219,6.88712 0.39629,5.22731 -0.49064,4.00069 -1.60405,2.49101 -4.54796,3.22697 -3.01939,1.00017 -3.84973,0.0944 -3.51004,-0.37742 -4.41585,-8.39769 -1.18889,-3.22698 v -1.84936 l 1.0568,-3.00052 0.0377,-1.41534 -0.86809,-1.05679 -1.07564,-0.50952 -1.45309,0.16984 -1.22663,1.33986 -0.56613,1.32098 -0.50953,1.88712 -0.15096,1.17001 0.0377,2.6231 1.43421,4.47246 2.26455,3.94408 1.35872,2.64197 -4.66118,0.50951 -6.62379,1.39648 -6.68039,2.90616 -1.96261,1.27852 -8.96382,4.83574 -2.71746,0.54727 h -6.13313 l -6.28411,-2.81181 -3.15148,-3.39681 -1.01905,-2.79293 0.28307,-2.8873 2.60422,-2.96277 5.8312,-1.49083 12.53047,-0.28306 5.32167,-0.3963 4.54796,-1.3776 2.62317,-2.14022 1.46116,-2.69549 0.32693,-2.46861 -0.44035,-3.70962 -1.30104,-1.40779 -0.95409,-0.16013 -0.98745,0.27356 -0.834,0.64718 -0.46704,0.89404 -0.12009,0.70723 0.34027,2.0483 -0.0734,1.8081 -1.19429,1.62795 -3.47609,1.14759 -6.59191,0.52708 -12.62338,0.40032 -5.7112,1.5479 -2.4286,1.54789 -1.0475,1.14759 -6.88545,-1.44094 -4.52909,-2.83067 -1.773888,-2.98165 0.07549,-4.11391 1.887118,-4.4536 1.73615,-2.49099 z"
                id="path3950"
                inkscape:connector-curvature="0"
                sodipodi:nodetypes="ccccccccccccccccccccccccccccccccccccccccccccccccccccccccccccccccccccccccccccccccccccccccccccccccccccccccccccccc"/>
        <path
                style="display:inline;fill:#fd7062;stroke:none;stroke-width:0.26458332px;stroke-linecap:butt;stroke-linejoin:miter;stroke-opacity:1"
                d="m 144.29754,126.92119 2.24179,-3.54949 c 1.38633,-1.16349 3.03084,-2.04897 5.07069,-2.50866 l 3.86975,-0.18681 c 1.8306,0.1067 3.61816,0.32622 5.25751,0.93407 l 4.617,2.08166 4.13663,3.20254 c 1.08384,1.1802 2.10793,2.38429 2.69547,3.763 0.46893,1.167 0.56538,2.38722 0.69389,3.60286 l -0.37362,2.08166 -0.77395,1.46783 -0.77396,0.53376 -0.96075,0.0267 -1.06753,-0.21351 -0.82731,-0.85401 -0.45371,-1.14758 0.21351,-1.14758 -0.29356,-2.61541 -2.08167,-2.74885 -3.62954,-2.45529 -3.68294,-1.25433 -4.10993,-0.53376 -2.40191,0.53376 -1.62796,0.85402 -1.04082,1.12089 -0.45369,0.93407 -1.06753,0.82733 -1.84145,-0.26688 -0.96076,-0.93408 z"
                id="path4759"
                inkscape:connector-curvature="0"
                sodipodi:nodetypes="cccccccccccccccccccccccccccccc"/>
        <path
                style="display:inline;fill:white;stroke:none;stroke-width:0.26458332px;stroke-linecap:butt;stroke-linejoin:miter;stroke-opacity:1"
                d="m 150.37201,161.46038 c 1.56475,2.65471 3.48795,5.1302 5.62925,7.49663 l 1.65087,0.81192 c 0.98045,0.3978 1.90586,0.46527 2.81463,0.43302 l 2.57104,-0.43302 4.62788,-1.54264 c 1.72252,-0.91195 3.30232,-2.03798 4.73615,-3.38296 l 1.67794,-2.65222 0.27064,-1.08255 -0.32477,-2.21922 -3.84304,-0.24357 -6.57647,-0.0271 c -3.66825,0.35521 -7.40489,0.64202 -10.44656,1.62381 l -2.11097,0.78485 z"
                id="path4791"
                inkscape:connector-curvature="0"
                sodipodi:nodetypes="ccccccccccccccc"/>
    </g>
</svg>
