<?xml version="1.0" encoding="UTF-8" standalone="no"?>
<!-- Generator: Adobe Illustrator 18.1.1, SVG Export Plug-In . SVG Version: 6.00 Build 0)  -->

<svg
   xmlns:dc="http://purl.org/dc/elements/1.1/"
   xmlns:cc="http://creativecommons.org/ns#"
   xmlns:rdf="http://www.w3.org/1999/02/22-rdf-syntax-ns#"
   xmlns:svg="http://www.w3.org/2000/svg"
   xmlns="http://www.w3.org/2000/svg"
   xmlns:sodipodi="http://sodipodi.sourceforge.net/DTD/sodipodi-0.dtd"
   xmlns:inkscape="http://www.inkscape.org/namespaces/inkscape"
   fill="#fd7062"
   version="1.1"
   id="Capa_1"
   x="0px"
   y="0px"
   viewBox="0 0 612.001 612.001"
   style="enable-background:new 0 0 612.001 612.001;"
   xml:space="preserve"
   sodipodi:docname="puzzle-and-head.svg"
   inkscape:version="0.92.4 (5da689c313, 2019-01-14)"><metadata
   id="metadata5243"><rdf:RDF><cc:Work
       rdf:about=""><dc:format>image/svg+xml</dc:format><dc:type
         rdf:resource="http://purl.org/dc/dcmitype/StillImage" /><dc:title></dc:title></cc:Work></rdf:RDF></metadata><defs
   id="defs5241" /><sodipodi:namedview
   pagecolor="#ffffff"
   bordercolor="#666666"
   borderopacity="1"
   objecttolerance="10"
   gridtolerance="10"
   guidetolerance="10"
   inkscape:pageopacity="0"
   inkscape:pageshadow="2"
   inkscape:window-width="1920"
   inkscape:window-height="1017"
   id="namedview5239"
   showgrid="false"
   inkscape:zoom="0.97978038"
   inkscape:cx="-141.3816"
   inkscape:cy="305.89555"
   inkscape:window-x="-8"
   inkscape:window-y="-8"
   inkscape:window-maximized="1"
   inkscape:current-layer="g5206" />
<g
   id="g5206">
	<path
   d="M 542.346,235.523 C 535.699,158.722 490.238,87.897 426.553,45.471 391.653,22.222 351.217,7.952 309.713,2.554 195.319,-12.325 74.841,37.92 31.685,150.284 c -37.099,96.597 -0.52,192.495 65.913,265.632 23.974,26.393 27.298,76.017 27.298,109.446 v 67.792 c 0,10.408 8.438,18.846 18.846,18.846 h 245.301 c 9.929,0 18.135,-7.704 18.806,-17.61 0.903,-13.335 2.386,-25.062 2.386,-25.062 5.129,-21.996 23.884,-39.634 63.768,-33.231 41.844,6.713 68.237,-5.756 70.584,-33.617 0.774,-9.191 1.273,-87.695 1.273,-87.695 1.999,-1.142 15.117,-3.75 34.236,-8.097 14.867,-3.38 20.103,-21.838 9.263,-32.561 -43.469,-43.001 -49.299,-63.047 -50.378,-67.362 -5.383,-21.438 5.315,-48.716 3.365,-71.242 z"
   id="path5204"
   inkscape:connector-curvature="0"
   sodipodi:nodetypes="cccccssssccccccccc"
   style="display:inline" />
<path
   style="display:inline;fill:none;stroke:#fffff0;stroke-width:6.42519712;stroke-linecap:butt;stroke-linejoin:round;stroke-miterlimit:4;stroke-dasharray:none;stroke-opacity:0"
   d="m 393.42118,250.67919 16.53483,0.29783 c -11.74371,-25.08242 28.58166,-23.85732 17.13067,-0.29783 l 17.13075,0.59585 -0.44689,50.79624 -51.3921,0.44689 0.14899,-17.42864 c 18.42173,14.35007 30.43802,-27.45876 0.89375,-17.72656 z"
   id="path842"
   inkscape:connector-curvature="0"
   sodipodi:nodetypes="ccccccccc" /><path
   style="display:inline;fill:none;stroke:#fffff0;stroke-width:6.29291344;stroke-linecap:butt;stroke-linejoin:round;stroke-miterlimit:4;stroke-dasharray:none;stroke-opacity:0"
   d="m 392.37844,302.51817 -50.83834,-0.24302 0.48899,-102.31759 51.09417,-0.59584 -0.14899,16.38587 c -26.68763,-11.49785 -22.1857,31.12441 -0.22344,18.09899 l 0.52137,33.59104 c 24.47058,-8.6634 22.80324,29.53043 -0.29791,17.27966 z"
   id="path4551"
   inkscape:connector-curvature="0"
   sodipodi:nodetypes="ccccccccc" /><path
   style="fill:none;stroke:#fffff0;stroke-width:6.67086601;stroke-linecap:butt;stroke-linejoin:round;stroke-miterlimit:4;stroke-dasharray:none;stroke-opacity:0"
   d="m 392.97429,250.53021 -17.27966,0.14891 c 9.2848,26.65527 -27.43499,23.91224 -17.13069,-0.29783 l -16.98174,-0.29782"
   id="path4553"
   inkscape:connector-curvature="0"
   sodipodi:nodetypes="cccc" /><path
   style="fill:none;stroke:#fffff0;stroke-width:6.67086601;stroke-linecap:round;stroke-linejoin:round;stroke-miterlimit:4;stroke-dasharray:none;stroke-opacity:0"
   d="m 455.76623,163.0442 -10.7562,-10.99794 -35.89436,36.25694 10.39363,11.48137 c -22.59432,12.55805 3.52607,36.47716 13.17335,13.05248 l 11.60224,10.87711 11.96478,-11.36051 c -22.94117,-8.39524 0.517,-36.63413 12.56904,-12.68995 l 12.08569,-12.20648 -14.1402,-13.65679"
   id="path4559"
   inkscape:connector-curvature="0"
   sodipodi:nodetypes="cccccccccc" /><path
   style="display:inline;fill:#ffffff;fill-opacity:1;stroke:#ffffff;stroke-width:0;stroke-linecap:round;stroke-linejoin:round;stroke-miterlimit:4;stroke-dasharray:none;stroke-opacity:1"
   d="m 157.75648,140.64443 81.69303,-0.47715 C 182.11361,17.708272 378.9927,23.68954 323.08595,138.71321 l 83.63685,2.90906 -2.18184,248.00069 -244.15054,2.18181 0.7274,-85.09123 c 112.14878,91.3042 152.46887,-144.68259 -2.39574,-74.95841 z"
   id="path842-4"
   inkscape:connector-curvature="0"
   sodipodi:nodetypes="ccccccccc" /></g>
<g
   id="g5208">
</g>
<g
   id="g5210">
</g>
<g
   id="g5212">
</g>
<g
   id="g5214">
</g>
<g
   id="g5216">
</g>
<g
   id="g5218">
</g>
<g
   id="g5220"
   style="display:inline">
</g>
<g
   id="g5222">
</g>
<g
   id="g5224">
</g>
<g
   id="g5226">
</g>
<g
   id="g5228">
</g>
<g
   id="g5230">
</g>
<g
   id="g5232">
</g>
<g
   id="g5234">
</g>
<g
   id="g5236">
</g>
<path
   style="display:inline;fill:none;stroke:#ffff00;stroke-width:6.42519712;stroke-linecap:butt;stroke-linejoin:round;stroke-miterlimit:4;stroke-dasharray:none;stroke-opacity:0"
   d="m 271.49853,224.076 16.53483,0.29783 c -11.74371,-25.08242 28.58165,-23.85732 17.13067,-0.29783 l 17.13074,0.59585 -0.44689,50.79624 -51.39209,0.44689 0.14899,-17.42864 c 18.42172,14.35007 30.43801,-27.45876 0.89375,-17.72656 z"
   id="path842-63"
   inkscape:connector-curvature="0"
   sodipodi:nodetypes="ccccccccc" /><path
   style="fill:none;stroke:#ffff00;stroke-width:6.29291344;stroke-linecap:butt;stroke-linejoin:round;stroke-miterlimit:4;stroke-dasharray:none;stroke-opacity:0"
   d="m 270.45579,275.91498 -50.83835,-0.24302 0.489,-102.3176 51.09417,-0.59584 -0.14899,16.38588 c -26.68764,-11.49785 -22.18571,31.12441 -0.22345,18.09899 l 0.52137,33.59104 c 24.47059,-8.6634 22.80325,29.53043 -0.2979,17.27966 z"
   id="path4551-2"
   inkscape:connector-curvature="0"
   sodipodi:nodetypes="ccccccccc" /><path
   style="fill:none;stroke:#ffff00;stroke-width:6.67086601;stroke-linecap:butt;stroke-linejoin:round;stroke-miterlimit:4;stroke-dasharray:none;stroke-opacity:0"
   d="m 271.05164,223.92702 -17.27966,0.14891 c 9.2848,26.65527 -27.43499,23.91224 -17.1307,-0.29783 l -16.98173,-0.29782"
   id="path4553-4"
   inkscape:connector-curvature="0"
   sodipodi:nodetypes="cccc" /><path
   style="fill:none;stroke:#ffff00;stroke-width:6.67086601;stroke-linecap:round;stroke-linejoin:round;stroke-miterlimit:4;stroke-dasharray:none;stroke-opacity:0"
   d="m 333.84357,136.441 -10.7562,-10.99793 -35.89435,36.25693 10.39362,11.48138 c -22.59432,12.55804 3.52607,36.47716 13.17336,13.05248 l 11.60223,10.8771 11.96478,-11.3605 c -22.94116,-8.39524 0.517,-36.63413 12.56904,-12.68995 l 12.08569,-12.20648 -14.1402,-13.65679"
   id="path4559-8"
   inkscape:connector-curvature="0"
   sodipodi:nodetypes="cccccccccc" /></svg>